# xmcd
#
# Track frame offsets:
#	150
#	13540
#	26324
#	44651
#	57931
#	71234
#	83225
#	99177
#	114203
#	126501
#	137426
#
# Disc length: 2043 seconds
#
# Revision: 1
# Processed by: cddbd v1.5.2PL0 Copyright (c) Steve Scherf et al.
# Submitted via: audiograbber 1.83.01
#
DISCID=8c07f90b
DTITLE=Brenda Lee - For The First Time W Pete Fontaine
DYEAR=1968
DGENRE=Oldies
TTITLE0=Cabaret
TTITLE1=There's A Kind Of Hush
TTITLE2=Basin Street Blues
TTITLE3=Windy
TTITLE4=Night And Day
TTITLE5=One Of Those Songs
TTITLE6=Mood Indigo
TTITLE7=Can't Take My Eyes Off You
TTITLE8=59th Street Bridge Song
TTITLE9=Anything Goes
TTITLE10=I Gotta Right To Sing The Blues
EXTD=
EXTT0=
EXTT1=
EXTT2=
EXTT3=
EXTT4=
EXTT5=
EXTT6=
EXTT7=
EXTT8=
EXTT9=
EXTT10=
PLAYORDER=
